HIERARCHY
ROOT Hips
{
	OFFSET 0.00000 0.00000 0.00000
	CHANNELS 6 Xposition Yposition Zposition Zrotation Yrotation Xrotation 
	JOINT LHipJoint
	{
		OFFSET 0 0 0
		CHANNELS 3 Zrotation Yrotation Xrotation
		JOINT LeftHip
		{
			OFFSET 1.62067 -1.77917 0.70989
			CHANNELS 3 Zrotation Yrotation Xrotation
			JOINT LeftKnee
			{
				OFFSET 2.34532 -6.44371 0.00000
				CHANNELS 3 Zrotation Yrotation Xrotation
				JOINT LeftAnkle
				{
					OFFSET 2.74224 -7.53425 0.00000
					CHANNELS 3 Zrotation Yrotation Xrotation
					JOINT LeftToe
					{
						OFFSET 0.17032 -0.46794 2.08086
						CHANNELS 3 Zrotation Yrotation Xrotation
						End Site
						{
							OFFSET 0.00000 -0.00000 1.07476
						}
					}
				}
			}
		}
	}
	JOINT RHipJoint
	{
		OFFSET 0 0 0
		CHANNELS 3 Zrotation Yrotation Xrotation
		JOINT RightHip
		{
			OFFSET -1.55811 -1.77917 0.70989
			CHANNELS 3 Zrotation Yrotation Xrotation
			JOINT RightKnee
			{
				OFFSET -2.33243 -6.40830 0.00000
				CHANNELS 3 Zrotation Yrotation Xrotation
				JOINT RightAnkle
				{
					OFFSET -2.78798 -7.65993 0.00000
					CHANNELS 3 Zrotation Yrotation Xrotation
					JOINT RightToe
					{
						OFFSET -0.22707 -0.62388 2.04059
						CHANNELS 3 Zrotation Yrotation Xrotation
						End Site
						{
							OFFSET -0.00000 -0.00000 1.07030
						}
					}
				}
			}
		}
	}
	JOINT lowerback
	{
		OFFSET 0 0 0
		CHANNELS 3 Zrotation Yrotation Xrotation
		JOINT Chest
		{
			OFFSET 0.02203 1.91565 0.07161
			CHANNELS 3 Zrotation Yrotation Xrotation
			JOINT Chest2
			{
				OFFSET 0.01740 1.90525 0.11636
				CHANNELS 3 Zrotation Yrotation Xrotation
				JOINT lowerneck
				{
					OFFSET 0 0 0
					CHANNELS 3 Zrotation Yrotation Xrotation
					JOINT Neck
					{
						OFFSET -0.10841 1.83566 0.05067
						CHANNELS 3 Zrotation Yrotation Xrotation
						JOINT Head
						{
							OFFSET 0.06601 1.74760 -0.50505
							CHANNELS 3 Zrotation Yrotation Xrotation
							End Site
							{
								OFFSET 0.03102 1.85215 -0.17697
							}
						}
					}
				}
				JOINT LeftCollar
				{
					OFFSET 0 0 0
					CHANNELS 3 Zrotation Yrotation Xrotation
					JOINT LeftShoulder
					{
						OFFSET 2.87059 1.35470 0.16111
CHANNELS 3 Zrotation Xrotation Yrotation
						JOINT LeftElbow
						{
OFFSET 0 -5.435920 0.000000
CHANNELS 3 Zrotation Xrotation Yrotation
							JOINT LeftWrist
							{
OFFSET 0 -3.254600 0.000000
CHANNELS 3 Zrotation Xrotation Yrotation
								JOINT lhand
								{
									OFFSET 0 0 0
CHANNELS 3 Zrotation Xrotation Yrotation
									JOINT LFingers
									{
OFFSET 0 -0.498240 0.000000
CHANNELS 3 Zrotation Xrotation Yrotation
										End Site
										{
OFFSET 0 -0.401700 0.000000
										}
									}
								}
								JOINT LThumb
								{
OFFSET 0 0.000000 0.000000
CHANNELS 3 Zrotation Xrotation Yrotation
									End Site
									{
OFFSET 0 -0.407830 0.407830
									}
								}
							}
						}
					}
				}
				JOINT RightCollar
				{
					OFFSET 0 0 0
					CHANNELS 3 Zrotation Yrotation Xrotation
					JOINT RightShoulder
					{
						OFFSET -2.86643 1.23488 0.45957
CHANNELS 3 Zrotation Xrotation Yrotation
						JOINT RightElbow
						{
OFFSET 0 -5.338300 0.000000
CHANNELS 3 Zrotation Xrotation Yrotation
							JOINT RightWrist
							{
OFFSET 0 -3.231480 0.000000
CHANNELS 3 Zrotation Xrotation Yrotation
								JOINT rhand
								{
									OFFSET 0 0 0
CHANNELS 3 Zrotation Xrotation Yrotation
									JOINT RFingers
									{
OFFSET 0 -0.463640 0.000000
CHANNELS 3 Zrotation Xrotation Yrotation
										End Site
										{
OFFSET 0 -0.373800 0.000000
										}
									}
								}
								JOINT RThumb
								{
OFFSET 0 0.000000 0.000000
CHANNELS 3 Zrotation Xrotation Yrotation
									End Site
									{
OFFSET 0 -0.379510 0.379510
									}
								}
							}
						}
					}
				}
			}
		}
	}
}
MOTION
Frames: 7
Frame Time: 0.008333333333333333
5.513540 17.437861 1.483180 0.927269 2.668477 19.991596 0.000000 0.000000 0.000000 -29.349473 -3.914202 -19.001270 0.814920 5.760341 16.090602 0.820477 -3.831888 -16.251724 0.219931 3.018456 8.330163 0.000000 0.000000 0.000000 -8.466817 13.535350 -6.213910 -0.231477 -3.096843 8.548513 -0.022932 -15.330671 -21.994207 -4.769897 -13.119857 39.818828 10.137532 -1.083981 -10.343658 0.754856 -1.789020 -14.604745 -4.821449 -1.924887 -10.471675 10.600976 19.983952 -3.453927 0.004464 26.163746 8.618576 0.068009 13.241522 4.449914 0.000000 0.000000 0.000000 120.532158 -6.532416 24.076380 17.820754 -27.927072 4.464977 20.033772 -61.025592 13.030056 0.000000 0.000000 0.000000 -7.125000 0.000000 0.000000 -5.019955 16.176778 -3.436031 0.000000 0.000000 0.000000 -110.751571 19.468358 -28.542497 -128.980872 -53.398320 -93.009781 -6.946008 -58.943366 43.483507 0.000000 0.000000 0.000000 7.125000 0.000000 0.000000 44.138976 68.905190 -27.150850
5.509380 17.438758 1.466541 0.994608 2.550334 20.109246 0.000000 0.000000 0.000000 -29.443957 -3.897015 -19.199753 0.810199 5.744036 16.043490 0.806676 -3.757795 -16.118138 0.226102 3.060919 8.448363 0.000000 0.000000 0.000000 -8.633333 13.732475 -6.702926 -0.256000 -3.255140 8.989961 -0.279146 -14.030387 -22.811659 -5.253461 -13.662442 41.904045 9.983892 -1.073930 -10.249960 0.747032 -1.758936 -14.630382 -4.741445 -1.898282 -10.537482 10.512211 20.041125 -3.822462 0.162459 26.191085 8.877881 0.174509 13.258253 4.556730 0.000000 0.000000 0.000000 120.645166 -6.469222 24.286557 17.739476 -27.822235 4.426983 19.535392 -60.360287 12.881061 0.000000 0.000000 0.000000 -7.125000 0.000000 0.000000 -5.359957 16.379235 -3.646911 0.000000 0.000000 0.000000 -110.639424 19.591891 -28.681185 -129.041444 -53.374837 -93.058463 -6.098268 -59.434379 43.106833 0.000000 0.000000 0.000000 7.125000 0.000000 0.000000 44.243828 68.375058 -26.726907
5.525872 17.433906 1.499855 0.682097 2.401083 19.746332 0.000000 0.000000 0.000000 -29.249030 -3.424131 -18.871091 0.821801 5.784005 16.158914 0.841365 -3.904871 -16.456332 0.234517 3.116610 8.603505 0.000000 0.000000 0.000000 -8.268710 13.848759 -5.863984 -0.219624 -3.016660 8.325046 -0.002132 -15.494167 -22.011911 -4.756642 -13.104366 39.760426 10.509754 -0.947710 -10.319340 0.762782 -1.624496 -14.496537 -5.021241 -1.872412 -10.358789 10.530237 20.045791 -3.555129 0.059088 26.236980 8.710992 0.111370 13.278172 4.481436 0.000000 0.000000 0.000000 120.665574 -6.405314 24.088585 17.726663 -27.805781 4.421029 19.049906 -60.265731 12.604705 0.000000 0.000000 0.000000 -7.125000 0.000000 0.000000 -5.689240 16.712042 -3.832014 0.000000 0.000000 0.000000 -110.683496 19.461461 -28.592280 -128.962675 -53.405371 -92.995160 -5.678680 -59.600407 43.191303 0.000000 0.000000 0.000000 7.125000 0.000000 0.000000 44.805069 68.299945 -27.044612
5.523566 17.436002 1.486203 0.928969 2.617411 19.995319 0.000000 0.000000 0.000000 -29.451880 -3.679555 -19.102224 0.821119 5.781885 16.152848 0.821455 -3.953967 -16.248461 0.214022 2.978294 8.218259 0.000000 0.000000 0.000000 -8.513803 13.547499 -6.127496 -0.220045 -3.019827 8.334011 -0.052689 -15.278536 -22.224189 -4.908771 -13.278046 40.422489 10.194722 -1.066666 -10.429759 0.771960 -1.778827 -14.583930 -4.837652 -1.920906 -10.399378 10.522423 20.105095 -3.798625 0.021420 26.299000 8.955206 0.151582 13.306236 4.602490 0.000000 0.000000 0.000000 120.610107 -6.325826 24.138457 17.746029 -27.830731 4.430024 18.590022 -60.244320 12.407437 0.000000 0.000000 0.000000 -7.125000 0.000000 0.000000 -6.004452 16.957332 -4.014345 0.000000 0.000000 0.000000 -110.679596 19.490819 -28.617992 -128.996639 -53.392257 -93.022508 -6.320532 -59.195300 43.359949 0.000000 0.000000 0.000000 7.125000 0.000000 0.000000 44.506552 68.619753 -27.140177
5.526464 17.437361 1.484024 0.857690 2.714153 19.983511 0.000000 0.000000 0.000000 -29.358917 -3.691649 -19.089174 0.815567 5.762642 16.097306 0.817382 -4.040805 -16.198341 0.230000 3.086686 8.520200 0.000000 0.000000 0.000000 -8.405413 13.489601 -6.118428 -0.219775 -3.017704 8.328179 -0.023322 -15.463783 -22.183295 -4.814352 -13.171051 40.013294 10.267042 -1.100336 -10.482447 0.820712 -1.830255 -14.569241 -4.826366 -1.948491 -10.364625 10.530676 20.114828 -3.689952 0.035522 26.320395 8.872314 0.139028 13.318052 4.559757 0.000000 0.000000 0.000000 120.554583 -6.209551 23.965286 17.809962 -27.913058 4.459970 17.976327 -60.191929 12.209103 0.000000 0.000000 0.000000 -7.125000 0.000000 0.000000 -6.428016 17.214273 -4.264787 0.000000 0.000000 0.000000 -110.609124 19.310092 -28.618986 -128.868814 -53.441675 -92.919823 -8.167694 -57.957637 43.352529 0.000000 0.000000 0.000000 7.125000 0.000000 0.000000 42.692570 69.209769 -26.419027
5.538482 17.439063 1.495574 0.673915 2.591373 19.712452 0.000000 0.000000 0.000000 -29.246479 -3.478758 -18.780298 0.815819 5.763667 16.100191 0.833593 -3.916074 -16.376318 0.234441 3.116161 8.602280 0.000000 0.000000 0.000000 -8.200681 13.607518 -5.600430 -0.199896 -2.878836 7.941623 -0.060460 -15.303614 -22.334009 -4.974685 -13.353947 40.710683 10.574423 -0.996127 -10.530552 0.817667 -1.722091 -14.355584 -5.008241 -1.905771 -10.088324 10.537334 20.115526 -3.792595 -0.072721 26.319544 8.857019 0.121386 13.310622 4.586045 0.000000 0.000000 0.000000 120.546950 -6.073837 23.837060 17.847985 -27.962007 4.477739 17.401344 -60.294043 12.268870 0.000000 0.000000 0.000000 -7.125000 0.000000 0.000000 -6.828474 17.198029 -4.536673 0.000000 0.000000 0.000000 -110.531812 19.328893 -28.757047 -128.908106 -53.426508 -92.951410 -9.121466 -57.655399 43.510485 0.000000 0.000000 0.000000 7.125000 0.000000 0.000000 42.060588 69.631689 -26.354656
5.533021 17.440000 1.479386 0.791435 2.790085 19.995695 0.000000 0.000000 0.000000 -29.313517 -3.617816 -19.164340 0.820491 5.779590 16.146313 0.816882 -4.160486 -16.182038 0.215552 2.988956 8.247990 0.000000 0.000000 0.000000 -8.329609 13.420971 -6.071006 -0.213677 -2.975820 8.211534 -0.105439 -15.098952 -22.500467 -5.071610 -13.464028 41.131239 10.389887 -1.068369 -10.661604 0.841329 -1.820507 -14.428030 -4.882507 -1.937593 -10.099990 10.437265 20.137498 -3.910810 -0.062102 26.339479 8.790736 0.141995 13.315665 4.569997 0.000000 0.000000 0.000000 120.536110 -6.082879 23.946360 17.774993 -27.868113 4.443549 18.394577 -60.321697 12.482497 0.000000 0.000000 0.000000 -7.125000 0.000000 0.000000 -6.141363 16.895680 -4.115268 0.000000 0.000000 0.000000 -110.508546 19.373750 -28.824665 -128.897337 -53.430682 -92.942699 -8.535984 -57.969494 43.370341 0.000000 0.000000 0.000000 7.125000 0.000000 0.000000 42.365387 69.341834 -26.309834
